<?xml version="1.0" encoding="UTF-8"?>
<svg xmlns="http://www.w3.org/2000/svg" viewBox="0 0 800 800" version="1.1">
  <circle id="backdrop" fill="#353535" cx="400" cy="400" r="400" />
  <path id="lemon" fill="#FFCB6B" d="m 633.03789,166.963 c -23.094,-23.093 -54.39,-28.893 -75.091,-16.834 -58.906,34.312 -181.25,-53.076996 -321.073,86.746 -139.823004,139.823 -52.433,262.166 -86.745,321.07 -12.059,20.702 -6.26,51.999 16.833,75.093 23.095,23.095 54.392,28.891 75.095,16.832 58.901,-34.31 181.246,53.079 321.068,-86.743 139.822,-139.822 52.435,-262.167 86.746,-321.071 12.059,-20.702 6.261,-51.999 -16.833,-75.093 z m -245.157,72.559 c -58.189,14.547 -133.808,90.155 -148.358,148.358 -1.817,7.27 -8.342,12.124 -15.511,12.124 -1.284,0 -2.59,-0.156 -3.893,-0.481 -8.572,-2.144 -13.784,-10.83 -11.642,-19.403 17.424,-69.693 101.839,-154.19 171.642,-171.642 8.575,-2.143 17.261,3.069 19.403,11.642 2.142,8.573 -3.069,17.259 -11.641,19.402 z" />
</svg>
